<svg width="122.000000" height="53.000000" viewBox="0 0 122 53" fill="none" xmlns="http://www.w3.org/2000/svg" xmlns:xlink="http://www.w3.org/1999/xlink">
	<desc>
			Created with Pixso.
	</desc>
	<defs>
		<clipPath id="clip212_513">
			<rect width="122.000000" height="53.000000" fill="white" fill-opacity="0"/>
		</clipPath>
	</defs>
	<rect width="122.000000" height="53.000000" fill="#FFFFFF" fill-opacity="0"/>
	<g clip-path="url(#clip212_513)">
		<path d="M106.68 1.95C110.79 1.95 114.31 3.42 117.25 6.34C120.19 9.27 121.65 12.79 121.65 16.9C121.65 21.02 120.19 24.53 117.25 27.43C116.85 27.82 116.44 28.19 116.02 28.53C109.1 24.95 101.79 23.25 101.64 16.9C102.91 19.45 103.65 20.85 106.39 22.22C106.61 21.89 106.84 21.5 107.07 21.19C108.25 19.63 108.49 20.23 111.13 19.65C113.35 19.17 113.85 18.19 114.01 15.71C112 13.99 112.58 15.18 111.33 12.38C110.57 10.65 109.93 10.51 107.9 10.08L108.11 6.68C103.56 7.75 100.39 11.57 98.79 15.8C96.81 21.09 97.41 24.65 98.41 29.33C97.6 28.78 96.83 28.15 96.1 27.43C93.18 24.51 91.71 21 91.71 16.9C91.71 12.8 93.18 9.29 96.1 6.34C99.04 3.42 102.56 1.95 106.68 1.95L106.68 1.95Z" fill="#3D4A39" fill-opacity="1.000000" fill-rule="nonzero"/>
		<path d="M109.97 9.22L110.23 8.59C111.33 9.05 112.33 9.73 113.24 10.63L113.24 10.64C114.16 11.55 114.85 12.55 115.31 13.65C115.77 14.74 116 15.93 116 17.2C116 18.48 115.77 19.67 115.31 20.77C114.85 21.86 114.16 22.86 113.24 23.76C112.33 24.66 111.32 25.33 110.23 25.79C109.13 26.24 107.95 26.46 106.68 26.46C105.39 26.46 104.2 26.24 103.09 25.79C101.99 25.34 100.99 24.66 100.09 23.76L100.09 23.76C99.18 22.85 98.5 21.85 98.04 20.76C97.58 19.66 97.35 18.47 97.35 17.2C97.35 15.93 97.58 14.75 98.04 13.66C98.49 12.56 99.18 11.55 100.09 10.64C100.98 9.73 101.98 9.05 103.08 8.59L103.34 9.22C102.33 9.64 101.4 10.27 100.57 11.11C99.72 11.97 99.09 12.9 98.67 13.92C98.24 14.93 98.03 16.02 98.03 17.2C98.03 18.39 98.24 19.49 98.67 20.5C99.09 21.51 99.72 22.44 100.57 23.28L100.57 23.28C101.41 24.12 102.34 24.75 103.35 25.16C104.37 25.58 105.47 25.79 106.68 25.79C107.86 25.79 108.96 25.58 109.97 25.16C110.98 24.75 111.91 24.12 112.76 23.28L112.76 23.28C113.62 22.44 114.25 21.52 114.68 20.51C115.1 19.5 115.31 18.4 115.31 17.2C115.31 16.02 115.1 14.92 114.68 13.91C114.25 12.89 113.62 11.96 112.76 11.11L112.76 11.11C111.91 10.27 110.98 9.64 109.97 9.22L109.97 9.22ZM106.68 1.95C108.78 1.95 110.73 2.33 112.53 3.08C114.33 3.83 115.99 4.95 117.49 6.44L117.49 6.44C118.99 7.94 120.12 9.59 120.87 11.39C121.62 13.19 122 15.14 122 17.24C122 19.34 121.62 21.29 120.87 23.09C120.12 24.88 118.99 26.52 117.49 28.01C115.99 29.48 114.34 30.59 112.54 31.33C110.73 32.07 108.78 32.44 106.68 32.44L106.68 32.44C104.57 32.43 102.61 32.06 100.8 31.32C99 30.58 97.35 29.48 95.86 28.01L95.86 28.01C94.37 26.52 93.25 24.87 92.5 23.08C91.75 21.28 91.37 19.34 91.37 17.24C91.37 15.14 91.75 13.2 92.5 11.4C93.25 9.6 94.37 7.95 95.86 6.45L95.86 6.44C97.37 4.95 99.02 3.83 100.82 3.08C102.63 2.33 104.58 1.95 106.68 1.95L106.68 1.95ZM112.27 3.7C110.55 2.99 108.69 2.63 106.68 2.63C104.67 2.63 102.8 2.99 101.08 3.7C99.36 4.42 97.78 5.49 96.34 6.92C94.91 8.36 93.84 9.94 93.13 11.66C92.41 13.37 92.05 15.23 92.05 17.24C92.05 19.25 92.41 21.11 93.13 22.82C93.84 24.53 94.91 26.1 96.34 27.53C97.77 28.94 99.34 29.99 101.06 30.7C102.78 31.4 104.66 31.76 106.68 31.77L106.68 31.76C108.7 31.76 110.56 31.41 112.28 30.71C114 30 115.58 28.94 117.01 27.53C118.45 26.11 119.52 24.54 120.24 22.83C120.96 21.11 121.32 19.25 121.32 17.24C121.32 15.22 120.96 13.36 120.24 11.64C119.52 9.93 118.45 8.35 117.01 6.92L117.01 6.92C115.57 5.49 113.99 4.42 112.27 3.7L112.27 3.7Z" fill="#3D4A39" fill-opacity="1.000000" fill-rule="nonzero"/>
		<path d="M103.31 9.14L103.34 9.22C103.27 9.25 103.19 9.28 103.11 9.32C101.17 11.04 99.72 13.35 98.79 15.8C98.5 16.59 98.26 17.34 98.07 18.06C98.15 18.92 98.35 19.73 98.67 20.5C99.09 21.51 99.72 22.44 100.57 23.28L100.57 23.28C101.41 24.12 102.34 24.75 103.35 25.16C104.37 25.58 105.47 25.79 106.68 25.79C107.62 25.79 108.52 25.65 109.36 25.39C105.08 23.34 101.74 21.17 101.64 16.9C102.91 19.45 103.65 20.85 106.39 22.22C106.6 21.89 106.84 21.5 107.07 21.19C108.25 19.63 108.49 20.23 111.13 19.65C113.35 19.17 113.85 18.19 114.01 15.71C112 13.99 112.58 15.18 111.33 12.38C110.57 10.65 109.93 10.51 107.9 10.08L108.11 6.68C106.28 7.11 104.68 7.98 103.31 9.15L103.31 9.14Z" fill="#DDD5C1" fill-opacity="1.000000" fill-rule="nonzero"/>
		<path d="M110.22 25.79C109.12 26.24 107.94 26.46 106.68 26.46C105.39 26.46 104.2 26.24 103.09 25.79C101.99 25.34 100.99 24.66 100.09 23.76L100.09 23.76C99.18 22.85 98.5 21.85 98.04 20.76C97.91 20.44 97.8 20.12 97.7 19.79C97.17 23.08 97.68 25.88 98.39 29.24C99.24 29.83 100.13 30.32 101.06 30.7C102.78 31.41 104.66 31.76 106.68 31.77L106.68 31.77C108.69 31.77 110.56 31.41 112.28 30.71C113.58 30.17 114.81 29.44 115.95 28.49C114.01 27.5 112.04 26.64 110.21 25.79L110.22 25.79Z" fill="#AE7B3C" fill-opacity="1.000000" fill-rule="nonzero"/>
		<path d="M75.34 2.01C79.44 2.01 82.97 3.46 85.93 6.36L81.71 10.57C79.91 8.81 77.8 7.93 75.38 7.93C72.9 7.93 70.79 8.81 69.05 10.57C67.3 12.32 66.42 14.43 66.42 16.9C66.42 19.36 67.3 21.47 69.05 23.22C70.78 24.97 72.89 25.84 75.38 25.84C77.21 25.84 78.87 25.33 80.37 24.31C81.75 23.38 82.78 22.17 83.47 20.7L75.05 20.7L75.05 15.08L90.2 15.08C90.58 20.09 89.15 24.21 85.9 27.43C82.95 30.33 79.43 31.78 75.33 31.78C71.18 31.78 67.66 30.33 64.77 27.43C61.85 24.54 60.38 21.03 60.38 16.9C60.38 12.8 61.85 9.28 64.77 6.34C67.67 3.42 71.19 1.95 75.33 1.95L75.35 2.01L75.34 2.01Z" fill="#3D4A39" fill-opacity="1.000000" fill-rule="nonzero"/>
		<path d="M75.59 1.67C77.59 1.7 79.45 2.07 81.19 2.78C83 3.53 84.66 4.64 86.17 6.12L86.41 6.36L81.71 11.05L81.47 10.81C80.6 9.96 79.66 9.33 78.65 8.9C77.64 8.48 76.55 8.27 75.38 8.27C74.19 8.27 73.08 8.48 72.07 8.9C71.06 9.33 70.13 9.96 69.29 10.81L69.29 10.81C68.45 11.66 67.81 12.58 67.39 13.6C66.97 14.61 66.76 15.71 66.76 16.9C66.76 18.09 66.97 19.18 67.39 20.2C67.81 21.21 68.45 22.14 69.29 22.98L69.29 22.98C70.13 23.82 71.05 24.45 72.06 24.87C73.07 25.29 74.18 25.5 75.38 25.5C76.26 25.5 77.1 25.38 77.9 25.14C78.7 24.89 79.46 24.52 80.18 24.03L80.18 24.03C80.84 23.59 81.42 23.07 81.92 22.49C82.3 22.05 82.63 21.57 82.92 21.04L74.71 21.04L74.71 14.74L90.51 14.74L90.54 15.05C90.73 17.6 90.47 19.93 89.73 22.03C89 24.14 87.8 26.02 86.13 27.67C84.63 29.15 82.98 30.26 81.18 31.01C79.37 31.75 77.42 32.12 75.33 32.12C73.21 32.12 71.25 31.75 69.45 31.01C67.64 30.26 66.01 29.15 64.53 27.67C63.04 26.19 61.92 24.55 61.17 22.76C60.42 20.96 60.04 19.01 60.04 16.9C60.04 14.8 60.42 12.86 61.17 11.06C61.92 9.26 63.04 7.61 64.53 6.1C66.01 4.61 67.66 3.49 69.46 2.74C71.26 1.99 73.22 1.61 75.33 1.61L75.57 1.61L75.59 1.67L75.59 1.67ZM80.93 3.41C79.21 2.7 77.35 2.35 75.35 2.35L75.1 2.35L75.08 2.29C73.16 2.32 71.37 2.68 69.72 3.36C68 4.08 66.43 5.15 65.01 6.58C63.58 8.02 62.51 9.6 61.79 11.32C61.08 13.03 60.72 14.89 60.72 16.9C60.72 18.92 61.08 20.79 61.79 22.5C62.51 24.21 63.58 25.77 65.01 27.19L65.01 27.19C66.42 28.61 67.99 29.67 69.7 30.38C71.42 31.09 73.29 31.44 75.33 31.44C77.34 31.44 79.2 31.09 80.92 30.38C82.64 29.67 84.22 28.61 85.66 27.19C87.25 25.61 88.39 23.82 89.09 21.81C89.76 19.89 90.03 17.75 89.88 15.41L75.39 15.41L75.39 20.37L84 20.37L83.77 20.85C83.42 21.61 82.97 22.3 82.43 22.93C81.9 23.55 81.27 24.11 80.56 24.59L80.56 24.59C79.78 25.12 78.96 25.52 78.1 25.78C77.23 26.05 76.33 26.18 75.38 26.18C74.09 26.18 72.9 25.95 71.8 25.5C70.71 25.04 69.71 24.36 68.81 23.46L68.81 23.46C67.9 22.55 67.22 21.55 66.76 20.45C66.31 19.36 66.08 18.17 66.08 16.9C66.08 15.62 66.31 14.43 66.76 13.34C67.22 12.24 67.9 11.24 68.81 10.33L68.81 10.33C69.71 9.42 70.71 8.74 71.81 8.28C72.91 7.82 74.1 7.59 75.38 7.59C76.64 7.59 77.81 7.82 78.91 8.28C79.91 8.7 80.84 9.3 81.7 10.1L85.45 6.37C84.06 5.06 82.56 4.08 80.93 3.41L80.93 3.41Z" fill="#3D4A39" fill-opacity="1.000000" fill-rule="nonzero"/>
		<path d="M51.88 18.43L51.88 2.12L57.82 2.12L57.82 32.17L40.04 15.29L40.04 31.6L34.12 31.6L34.12 1.57L51.88 18.43Z" fill="#3D4A39" fill-opacity="1.000000" fill-rule="nonzero"/>
		<path d="M51.2 16.85L51.2 1.44L58.5 1.44L58.5 33.75L40.72 16.87L40.72 32.28L33.44 32.28L33.44 -1.91e-6L51.2 16.85L51.2 16.85ZM52.56 2.8L52.56 20.01L34.8 3.15L34.8 30.93L39.36 30.93L39.36 13.72L57.14 30.59L57.14 2.8L52.56 2.8Z" fill="#3D4A39" fill-opacity="1.000000" fill-rule="nonzero"/>
		<path d="M24.53 2.19L30.46 2.19L30.46 31.57L24.53 31.57L24.53 2.19Z" fill="#3D4A39" fill-opacity="1.000000" fill-rule="nonzero"/>
		<path d="M24.53 1.85L30.8 1.85L30.8 31.9L24.19 31.9L24.19 1.85L24.53 1.85L24.53 1.85ZM30.12 2.53L24.87 2.53L24.87 31.23L30.12 31.23L30.12 2.53Z" fill="#3D4A39" fill-opacity="1.000000" fill-rule="nonzero"/>
		<path d="M10.52 16.16C11.6 16.16 12.52 15.76 13.28 14.95C14.04 14.13 14.42 13.16 14.42 12.03C14.42 10.96 14.03 10.02 13.25 9.2C12.44 8.43 11.22 8.04 9.59 8.04L6.26 8.04L6.26 16.15L8.54 16.15L8.54 16.17L10.52 16.17L10.52 16.16ZM0.34 2.19L9.96 2.19C13.08 2.19 15.65 3.18 17.67 5.18C18.67 6.16 19.36 7.09 19.78 7.97C20.28 9.04 20.53 10.33 20.53 11.85L20.53 12.61C20.53 14.59 19.91 16.46 18.67 18.21C17.77 19.45 16.59 20.35 15.13 20.92L21.99 31.57L14.75 31.57L6.28 18.57L6.28 31.57L0.34 31.57L0.34 2.19L0.34 2.19Z" fill="#3D4A39" fill-opacity="1.000000" fill-rule="nonzero"/>
		<path d="M10.52 15.83C11.01 15.83 11.47 15.74 11.88 15.55C12.3 15.37 12.68 15.09 13.03 14.72C13.38 14.34 13.65 13.93 13.82 13.48C13.99 13.04 14.08 12.55 14.08 12.03C14.08 11.54 13.99 11.08 13.81 10.65C13.63 10.22 13.36 9.82 13 9.44C12.64 9.09 12.18 8.83 11.63 8.65C11.05 8.47 10.37 8.38 9.59 8.38L6.6 8.38L6.6 15.81L8.88 15.81L8.88 15.83L10.52 15.83L10.52 15.83ZM12.16 16.17C11.65 16.39 11.11 16.5 10.52 16.5L8.21 16.5L8.21 16.48L5.92 16.48L5.92 7.7L9.59 7.7C10.44 7.7 11.18 7.8 11.83 8.01C12.49 8.22 13.04 8.54 13.48 8.96L13.49 8.97C13.91 9.41 14.23 9.88 14.44 10.39C14.65 10.9 14.76 11.45 14.76 12.03C14.76 12.63 14.66 13.2 14.45 13.73C14.24 14.25 13.94 14.74 13.53 15.17L13.53 15.18C13.11 15.62 12.66 15.95 12.15 16.17L12.16 16.17ZM0.34 1.85L9.96 1.85C11.56 1.85 13.02 2.11 14.35 2.62C15.68 3.14 16.87 3.91 17.91 4.94C18.42 5.44 18.85 5.93 19.21 6.41C19.58 6.89 19.87 7.36 20.08 7.82L20.08 7.82C20.34 8.38 20.54 9 20.67 9.67C20.8 10.34 20.86 11.07 20.86 11.85L20.86 12.61C20.86 13.64 20.7 14.63 20.38 15.6C20.06 16.57 19.58 17.5 18.94 18.4L18.94 18.41C18.47 19.05 17.94 19.61 17.32 20.08C16.81 20.47 16.25 20.81 15.63 21.08L22.61 31.9L14.57 31.9L6.62 19.71L6.62 31.9L0 31.9L0 1.85L0.33 1.85L0.34 1.85ZM9.96 2.53L0.67 2.53L0.67 31.23L5.94 31.23L5.94 17.43L14.93 31.23L21.37 31.23L14.62 20.76L15.01 20.61C15.71 20.33 16.34 19.98 16.91 19.55C17.47 19.12 17.96 18.61 18.39 18.02L18.39 18.02C18.99 17.17 19.44 16.29 19.74 15.39C20.04 14.49 20.19 13.57 20.19 12.61L20.19 11.85C20.19 11.11 20.13 10.43 20.01 9.8C19.89 9.18 19.71 8.62 19.47 8.11L19.47 8.11C19.27 7.69 19.01 7.26 18.67 6.82C18.33 6.37 17.92 5.9 17.43 5.42C16.46 4.45 15.35 3.73 14.1 3.25C12.86 2.77 11.48 2.53 9.96 2.53L9.96 2.53Z" fill="#3D4A39" fill-opacity="1.000000" fill-rule="nonzero"/>
		<path d="M6.34 51.2C6.96 51.2 7.52 51.1 8.01 50.89C8.5 50.68 8.91 50.39 9.25 50.01C9.59 49.63 9.85 49.18 10.03 48.66C10.21 48.14 10.3 47.56 10.3 46.93L10.3 37.81L12.32 37.81L12.32 46.93C12.32 47.8 12.19 48.6 11.91 49.34C11.64 50.08 11.24 50.72 10.72 51.26C10.21 51.8 9.58 52.23 8.84 52.53C8.09 52.84 7.26 53 6.34 53C5.41 53 4.58 52.84 3.83 52.53C3.09 52.23 2.46 51.8 1.94 51.26C1.42 50.72 1.03 50.08 0.75 49.34C0.48 48.6 0.34 47.8 0.34 46.93L0.34 37.81L2.36 37.81L2.36 46.92C2.36 47.55 2.45 48.13 2.63 48.65C2.81 49.17 3.07 49.62 3.41 50C3.75 50.38 4.17 50.67 4.66 50.88C5.15 51.1 5.71 51.2 6.33 51.2L6.34 51.2Z" fill="#AE7B3C" fill-opacity="1.000000" fill-rule="nonzero"/>
		<path d="M23.39 44.39L24.16 44.39C24.43 44.39 24.64 44.35 24.8 44.29C24.96 44.22 25.11 44.11 25.24 43.95L30.25 38.29C30.39 38.11 30.54 37.99 30.7 37.92C30.85 37.85 31.04 37.81 31.26 37.81L32.99 37.81L27.25 44.27C27.11 44.44 26.98 44.58 26.85 44.68C26.72 44.79 26.58 44.88 26.43 44.95C26.62 45.01 26.79 45.11 26.95 45.23C27.1 45.35 27.25 45.51 27.4 45.71L33.39 52.82L31.62 52.82C31.49 52.82 31.38 52.8 31.28 52.79C31.19 52.77 31.1 52.74 31.03 52.7C30.96 52.67 30.9 52.62 30.85 52.57C30.8 52.51 30.74 52.46 30.7 52.39L25.5 46.43C25.36 46.25 25.21 46.13 25.05 46.05C24.89 45.98 24.65 45.95 24.32 45.95L23.39 45.95L23.39 52.82L21.37 52.82L21.37 37.81L23.39 37.81L23.39 44.39L23.39 44.39Z" fill="#AE7B3C" fill-opacity="1.000000" fill-rule="nonzero"/>
		<path d="M44.84 45.08C45.43 45.08 45.95 45.01 46.4 44.86C46.85 44.72 47.23 44.52 47.54 44.26C47.84 43.99 48.07 43.68 48.22 43.32C48.38 42.96 48.46 42.55 48.46 42.12C48.46 41.22 48.16 40.55 47.57 40.1C46.98 39.64 46.1 39.41 44.93 39.41L42.7 39.41L42.7 45.08L44.84 45.08L44.84 45.08ZM51.8 52.82L49.99 52.82C49.62 52.82 49.35 52.67 49.17 52.39L45.26 47.03C45.14 46.86 45.02 46.74 44.88 46.66C44.74 46.59 44.53 46.56 44.24 46.56L42.7 46.56L42.7 52.82L40.67 52.82L40.67 37.81L44.93 37.81C45.88 37.81 46.7 37.91 47.39 38.1C48.09 38.29 48.66 38.57 49.11 38.93C49.57 39.3 49.9 39.73 50.12 40.25C50.33 40.76 50.44 41.34 50.44 41.97C50.44 42.5 50.36 43 50.19 43.46C50.02 43.92 49.78 44.33 49.46 44.7C49.14 45.06 48.75 45.38 48.29 45.63C47.84 45.89 47.31 46.09 46.73 46.22C46.99 46.37 47.22 46.58 47.4 46.86L51.8 52.82Z" fill="#AE7B3C" fill-opacity="1.000000" fill-rule="nonzero"/>
		<path d="M66.51 47.25L64.14 41.14C64.07 40.96 64 40.75 63.92 40.51C63.85 40.27 63.77 40.01 63.7 39.74C63.56 40.3 63.41 40.78 63.25 41.15L60.89 47.25L66.51 47.25L66.51 47.25ZM70.76 52.82L69.18 52.82C69 52.82 68.85 52.77 68.74 52.68C68.63 52.59 68.54 52.47 68.49 52.33L67.08 48.71L60.32 48.71L58.91 52.33C58.87 52.46 58.79 52.57 58.67 52.67C58.55 52.77 58.4 52.82 58.23 52.82L56.65 52.82L62.67 37.81L64.73 37.81L70.75 52.82L70.76 52.82Z" fill="#AE7B3C" fill-opacity="1.000000" fill-rule="nonzero"/>
		<path d="M79.46 52.82L77.42 52.82L77.42 37.81L79.46 37.81L79.46 52.82Z" fill="#AE7B3C" fill-opacity="1.000000" fill-rule="nonzero"/>
		<path d="M100.88 37.81L100.88 52.82L99.86 52.82C99.7 52.82 99.57 52.79 99.46 52.73C99.35 52.68 99.24 52.58 99.14 52.45L90.43 41.14C90.44 41.32 90.45 41.49 90.46 41.65C90.47 41.82 90.47 41.98 90.47 42.13L90.47 52.82L88.68 52.82L88.68 37.81L89.73 37.81C89.83 37.81 89.9 37.82 89.97 37.83C90.03 37.84 90.09 37.85 90.13 37.88C90.18 37.9 90.23 37.94 90.28 37.98C90.33 38.03 90.38 38.09 90.44 38.16L99.15 49.46C99.14 49.27 99.13 49.1 99.12 48.93C99.11 48.75 99.1 48.59 99.1 48.44L99.1 37.81L100.88 37.81L100.88 37.81Z" fill="#AE7B3C" fill-opacity="1.000000" fill-rule="nonzero"/>
		<path d="M117.41 47.25L115.04 41.14C114.97 40.96 114.9 40.75 114.82 40.51C114.74 40.27 114.67 40.01 114.6 39.74C114.45 40.3 114.3 40.78 114.15 41.15L111.78 47.25L117.41 47.25L117.41 47.25ZM121.65 52.82L120.07 52.82C119.89 52.82 119.75 52.77 119.63 52.68C119.52 52.59 119.44 52.47 119.38 52.33L117.97 48.71L111.22 48.71L109.81 52.33C109.76 52.46 109.68 52.57 109.57 52.67C109.45 52.77 109.3 52.82 109.12 52.82L107.55 52.82L113.57 37.81L115.63 37.81L121.65 52.82L121.65 52.82Z" fill="#AE7B3C" fill-opacity="1.000000" fill-rule="nonzero"/>
	</g>
</svg>
